<mxfile host="app.diagrams.net" modified="2020-11-10T07:24:16.347Z" agent="5.0 (Macintosh; Intel Mac OS X 10_15_7) AppleWebKit/537.36 (KHTML, like Gecko) Chrome/86.0.4240.111 Safari/537.36" etag="mTfZ9Yg1I3-rCb77BLLq" version="13.6.9" type="github">
  <diagram name="Page-1" id="e7e014a7-5840-1c2e-5031-d8a46d1fe8dd">
    <mxGraphModel dx="719" dy="471" grid="1" gridSize="10" guides="1" tooltips="1" connect="1" arrows="1" fold="1" page="1" pageScale="1" pageWidth="1169" pageHeight="826" background="#ffffff" math="0" shadow="0">
      <root>
        <mxCell id="0" />
        <mxCell id="1" parent="0" />
        <mxCell id="2" value="费用名称 financial_data" style="swimlane;whiteSpace=wrap" parent="1" vertex="1">
          <mxGeometry x="164.5" y="128" width="245.5" height="570" as="geometry" />
        </mxCell>
        <mxCell id="5" value="" style="ellipse;shape=startState;fillColor=#000000;strokeColor=#ff0000;" parent="2" vertex="1">
          <mxGeometry x="100" y="40" width="30" height="30" as="geometry" />
        </mxCell>
        <mxCell id="6" value="" style="edgeStyle=elbowEdgeStyle;elbow=horizontal;verticalAlign=bottom;endArrow=open;endSize=8;strokeColor=#FF0000;endFill=1;rounded=0" parent="2" source="5" target="7" edge="1">
          <mxGeometry x="100" y="40" as="geometry">
            <mxPoint x="115" y="110" as="targetPoint" />
          </mxGeometry>
        </mxCell>
        <mxCell id="7" value="financial_data" style="" parent="2" vertex="1">
          <mxGeometry x="60" y="110" width="110" height="50" as="geometry" />
        </mxCell>
        <mxCell id="10" value="是否计入提成" style="" parent="2" vertex="1">
          <mxGeometry x="60" y="325" width="110" height="50" as="geometry" />
        </mxCell>
        <mxCell id="11" value="" style="endArrow=open;strokeColor=#FF0000;endFill=1;rounded=0;exitX=0.5;exitY=1;exitDx=0;exitDy=0;" parent="2" source="7" target="10" edge="1">
          <mxGeometry relative="1" as="geometry">
            <mxPoint x="115" y="270" as="sourcePoint" />
          </mxGeometry>
        </mxCell>
        <mxCell id="3" value="费用项目 financial_item" style="swimlane;whiteSpace=wrap" parent="1" vertex="1">
          <mxGeometry x="410" y="128" width="314.5" height="570" as="geometry" />
        </mxCell>
        <mxCell id="13" value="" style="ellipse;shape=startState;fillColor=#000000;strokeColor=#ff0000;" parent="3" vertex="1">
          <mxGeometry x="60" y="40" width="30" height="30" as="geometry" />
        </mxCell>
        <mxCell id="14" value="" style="edgeStyle=elbowEdgeStyle;elbow=horizontal;verticalAlign=bottom;endArrow=open;endSize=8;strokeColor=#FF0000;endFill=1;rounded=0" parent="3" source="13" target="15" edge="1">
          <mxGeometry x="40" y="20" as="geometry">
            <mxPoint x="55" y="90" as="targetPoint" />
          </mxGeometry>
        </mxCell>
        <mxCell id="15" value="费用项目" style="" parent="3" vertex="1">
          <mxGeometry x="20" y="110" width="110" height="50" as="geometry" />
        </mxCell>
        <mxCell id="AOcDzKrCe6sRBoyhd5j--49" value="可能会导致" style="edgeStyle=orthogonalEdgeStyle;rounded=0;orthogonalLoop=1;jettySize=auto;html=1;exitX=0.25;exitY=1;exitDx=0;exitDy=0;entryX=0.25;entryY=0;entryDx=0;entryDy=0;strokeColor=#FF0000;dashed=1;dashPattern=1 1;" edge="1" parent="3" source="16" target="18">
          <mxGeometry relative="1" as="geometry" />
        </mxCell>
        <mxCell id="AOcDzKrCe6sRBoyhd5j--50" style="edgeStyle=orthogonalEdgeStyle;rounded=0;orthogonalLoop=1;jettySize=auto;html=1;exitX=1;exitY=0.5;exitDx=0;exitDy=0;entryX=1;entryY=0.5;entryDx=0;entryDy=0;dashed=1;dashPattern=1 1;strokeColor=#FF0000;" edge="1" parent="3" source="16" target="30">
          <mxGeometry relative="1" as="geometry" />
        </mxCell>
        <mxCell id="AOcDzKrCe6sRBoyhd5j--51" value="可能会导致" style="edgeLabel;html=1;align=center;verticalAlign=middle;resizable=0;points=[];" vertex="1" connectable="0" parent="AOcDzKrCe6sRBoyhd5j--50">
          <mxGeometry x="-0.404" y="-1" relative="1" as="geometry">
            <mxPoint as="offset" />
          </mxGeometry>
        </mxCell>
        <mxCell id="16" value="是否计入提成" style="" parent="3" vertex="1">
          <mxGeometry x="20" y="220" width="110" height="50" as="geometry" />
        </mxCell>
        <mxCell id="17" value="" style="endArrow=open;strokeColor=#FF0000;endFill=1;rounded=0" parent="3" source="15" target="16" edge="1">
          <mxGeometry relative="1" as="geometry" />
        </mxCell>
        <mxCell id="AOcDzKrCe6sRBoyhd5j--52" style="edgeStyle=orthogonalEdgeStyle;rounded=0;orthogonalLoop=1;jettySize=auto;html=1;exitX=0.5;exitY=1;exitDx=0;exitDy=0;entryX=0;entryY=0;entryDx=41.5;entryDy=0;entryPerimeter=0;dashed=1;dashPattern=1 1;strokeColor=#FF0000;" edge="1" parent="3" source="18" target="31">
          <mxGeometry relative="1" as="geometry" />
        </mxCell>
        <mxCell id="18" value="计入提成" style="" parent="3" vertex="1">
          <mxGeometry x="20" y="362" width="110" height="50" as="geometry" />
        </mxCell>
        <mxCell id="AOcDzKrCe6sRBoyhd5j--46" value="是" style="edgeStyle=orthogonalEdgeStyle;rounded=0;orthogonalLoop=1;jettySize=auto;html=1;exitX=0;exitY=0.5;exitDx=0;exitDy=0;entryX=0.5;entryY=0;entryDx=0;entryDy=0;strokeColor=#FF0000;" edge="1" parent="3" source="21" target="18">
          <mxGeometry x="-0.2787" relative="1" as="geometry">
            <Array as="points">
              <mxPoint x="90" y="310" />
              <mxPoint x="90" y="362" />
            </Array>
            <mxPoint as="offset" />
          </mxGeometry>
        </mxCell>
        <mxCell id="AOcDzKrCe6sRBoyhd5j--47" style="edgeStyle=orthogonalEdgeStyle;rounded=0;orthogonalLoop=1;jettySize=auto;html=1;exitX=0.5;exitY=1;exitDx=0;exitDy=0;entryX=0.5;entryY=0;entryDx=0;entryDy=0;strokeColor=#FF0000;" edge="1" parent="3" source="21" target="30">
          <mxGeometry relative="1" as="geometry" />
        </mxCell>
        <mxCell id="AOcDzKrCe6sRBoyhd5j--48" value="否" style="edgeLabel;html=1;align=center;verticalAlign=middle;resizable=0;points=[];" vertex="1" connectable="0" parent="AOcDzKrCe6sRBoyhd5j--47">
          <mxGeometry x="-0.2683" y="-1" relative="1" as="geometry">
            <mxPoint as="offset" />
          </mxGeometry>
        </mxCell>
        <mxCell id="21" value="是否计入？" style="rhombus;fillColor=#ffffc0;strokeColor=#ff0000;" parent="3" vertex="1">
          <mxGeometry x="175" y="292" width="80" height="35" as="geometry" />
        </mxCell>
        <mxCell id="24" value="单独申请" style="endArrow=open;strokeColor=#FF0000;endFill=1;rounded=0" parent="3" source="16" target="21" edge="1">
          <mxGeometry relative="1" as="geometry" />
        </mxCell>
        <mxCell id="AOcDzKrCe6sRBoyhd5j--55" style="edgeStyle=orthogonalEdgeStyle;rounded=0;orthogonalLoop=1;jettySize=auto;html=1;exitX=0.5;exitY=1;exitDx=0;exitDy=0;entryX=0.5;entryY=0;entryDx=0;entryDy=0;entryPerimeter=0;dashed=1;dashPattern=1 1;strokeColor=#FF0000;" edge="1" parent="3" source="30" target="31">
          <mxGeometry relative="1" as="geometry" />
        </mxCell>
        <mxCell id="30" value="不计入提成" style="" parent="3" vertex="1">
          <mxGeometry x="140" y="362" width="110" height="50" as="geometry" />
        </mxCell>
        <mxCell id="31" value="费用项目确定是否计入提成" style="shape=note;whiteSpace=wrap;size=17" parent="3" vertex="1">
          <mxGeometry x="90" y="490" width="100" height="50" as="geometry" />
        </mxCell>
        <mxCell id="4" value="提成" style="swimlane;whiteSpace=wrap" parent="1" vertex="1">
          <mxGeometry x="724.5" y="128" width="280" height="570" as="geometry" />
        </mxCell>
        <mxCell id="38" value="" style="ellipse;shape=endState;fillColor=#000000;strokeColor=#ff0000" parent="4" vertex="1">
          <mxGeometry x="130" y="500" width="30" height="30" as="geometry" />
        </mxCell>
        <mxCell id="AOcDzKrCe6sRBoyhd5j--56" value="提成" style="" vertex="1" parent="4">
          <mxGeometry x="25.5" y="112" width="110" height="50" as="geometry" />
        </mxCell>
        <mxCell id="AOcDzKrCe6sRBoyhd5j--57" value="发放提成" style="" vertex="1" parent="4">
          <mxGeometry x="155.5" y="112" width="110" height="50" as="geometry" />
        </mxCell>
        <mxCell id="AOcDzKrCe6sRBoyhd5j--60" value="叠加" style="whiteSpace=wrap;html=1;" vertex="1" parent="4">
          <mxGeometry x="168" y="332" width="85" height="45" as="geometry" />
        </mxCell>
        <mxCell id="AOcDzKrCe6sRBoyhd5j--61" value="" style="edgeStyle=orthogonalEdgeStyle;rounded=0;orthogonalLoop=1;jettySize=auto;html=1;dashed=1;dashPattern=1 1;strokeColor=#FF0000;" edge="1" parent="4" source="AOcDzKrCe6sRBoyhd5j--57" target="AOcDzKrCe6sRBoyhd5j--60">
          <mxGeometry relative="1" as="geometry" />
        </mxCell>
        <mxCell id="AOcDzKrCe6sRBoyhd5j--44" style="edgeStyle=orthogonalEdgeStyle;rounded=0;orthogonalLoop=1;jettySize=auto;html=1;exitX=1;exitY=0.5;exitDx=0;exitDy=0;entryX=0;entryY=0.5;entryDx=0;entryDy=0;" edge="1" parent="1" source="10" target="16">
          <mxGeometry relative="1" as="geometry" />
        </mxCell>
        <mxCell id="AOcDzKrCe6sRBoyhd5j--45" value="影响" style="edgeLabel;html=1;align=center;verticalAlign=middle;resizable=0;points=[];" vertex="1" connectable="0" parent="AOcDzKrCe6sRBoyhd5j--44">
          <mxGeometry x="-0.1342" y="2" relative="1" as="geometry">
            <mxPoint as="offset" />
          </mxGeometry>
        </mxCell>
        <mxCell id="AOcDzKrCe6sRBoyhd5j--62" style="edgeStyle=orthogonalEdgeStyle;rounded=0;orthogonalLoop=1;jettySize=auto;html=1;exitX=1;exitY=0.5;exitDx=0;exitDy=0;entryX=0;entryY=0.5;entryDx=0;entryDy=0;strokeColor=#FF0000;endArrow=none;endFill=0;" edge="1" parent="1" source="AOcDzKrCe6sRBoyhd5j--58" target="AOcDzKrCe6sRBoyhd5j--60">
          <mxGeometry relative="1" as="geometry" />
        </mxCell>
        <mxCell id="AOcDzKrCe6sRBoyhd5j--63" value="相互影响" style="edgeLabel;html=1;align=center;verticalAlign=middle;resizable=0;points=[];" vertex="1" connectable="0" parent="AOcDzKrCe6sRBoyhd5j--62">
          <mxGeometry x="-0.2857" y="-3" relative="1" as="geometry">
            <mxPoint as="offset" />
          </mxGeometry>
        </mxCell>
        <mxCell id="AOcDzKrCe6sRBoyhd5j--58" value="一直计算，会叠加" style="whiteSpace=wrap;html=1;" vertex="1" parent="1">
          <mxGeometry x="753" y="365" width="105" height="45" as="geometry" />
        </mxCell>
        <mxCell id="AOcDzKrCe6sRBoyhd5j--59" value="" style="edgeStyle=orthogonalEdgeStyle;rounded=0;orthogonalLoop=1;jettySize=auto;html=1;dashed=1;dashPattern=1 1;strokeColor=#FF0000;" edge="1" parent="1" source="AOcDzKrCe6sRBoyhd5j--56" target="AOcDzKrCe6sRBoyhd5j--58">
          <mxGeometry relative="1" as="geometry" />
        </mxCell>
      </root>
    </mxGraphModel>
  </diagram>
</mxfile>
